Coordinates
version=1
nRows=43
nColumns=12
inDegrees=yes

Units are S.I. units (second, meters, Newtons, ...)
Angles are in degrees

endheader
time	SC_y	SC_z	SC_x	AC_y	AC_z	AC_x	GH_y	GH_z	GH_yy	EL_x	PS_y
       0.0              -36.91        -0.6402          1.286           37.5         -12.68           17.5          -70.2          31.38         -35.11          87.81          62.08
   0.03233              -36.91        -0.6402          1.289           37.5         -12.68           17.5         -70.21          31.39         -35.12          87.82          62.07
   0.06466              -36.91        -0.6403          1.293           37.5         -12.68           17.5         -70.23          31.39         -35.14          87.83          62.07
   0.09698              -36.91        -0.6403          1.297           37.5         -12.67           17.5         -70.24           31.4         -35.16          87.83          62.07
    0.1293              -36.91        -0.6404          1.302          37.51         -12.67           17.5         -70.25          31.41         -35.18          87.84          62.07
    0.1616              -36.91        -0.6404          1.306          37.51         -12.67           17.5         -70.27          31.42          -35.2          87.85          62.06
     0.194              -36.91        -0.6405          1.311          37.51         -12.67           17.5         -70.28          31.43         -35.22          87.85          62.06
    0.2263              -36.91        -0.6406          1.317          37.52         -12.67           17.5          -70.3          31.44         -35.24          87.86          62.05
    0.2586              -36.91        -0.6406          1.323          37.52         -12.67           17.5         -70.32          31.45         -35.27          87.87          62.05
     0.291              -36.91        -0.6407          1.329          37.53         -12.66           17.5         -70.34          31.46         -35.29          87.88          62.04
    0.3233              -36.91        -0.6408          1.335          37.53         -12.66           17.5         -70.36          31.47         -35.32          87.89          62.04
    0.3556              -36.91        -0.6409          1.342          37.54         -12.66           17.5         -70.39          31.48         -35.35           87.9          62.03
    0.3879              -36.91        -0.6409           1.35          37.54         -12.66           17.5         -70.41          31.49         -35.38          87.91          62.03
    0.4203              -36.91         -0.641          1.358          37.55         -12.65           17.5         -70.44          31.51         -35.42          87.92          62.02
    0.4526              -36.91        -0.6411          1.367          37.56         -12.65           17.5         -70.47          31.52         -35.46          87.94          62.01
    0.4849              -36.91        -0.6412          1.377          37.56         -12.65           17.5          -70.5          31.54          -35.5          87.95          62.01
    0.5173              -36.91        -0.6414          1.388          37.57         -12.64           17.5         -70.53          31.56         -35.54          87.97           62.0
    0.5496              -36.91        -0.6415          1.399          37.58         -12.64           17.5         -70.57          31.58         -35.59          87.99          61.99
    0.5819              -36.91        -0.6416          1.412          37.59         -12.64           17.5         -70.61           31.6         -35.65          88.01          61.98
    0.6142              -36.91        -0.6418          1.426           37.6         -12.63           17.5         -70.65          31.63          -35.7          88.03          61.97
    0.6466              -36.91         -0.642          1.441          37.61         -12.63           17.5          -70.7          31.65         -35.77          88.05          61.96
    0.6789              -36.91        -0.6422          1.457          37.62         -12.62           17.5         -70.76          31.68         -35.84          88.08          61.95
    0.7112              -36.91        -0.6424          1.476          37.64         -12.61           17.5         -70.82          31.72         -35.92           88.1          61.93
    0.7436              -36.91        -0.6426          1.496          37.65         -12.61           17.5         -70.88          31.75          -36.0          88.14          61.92
    0.7759              -36.91        -0.6429          1.519          37.67          -12.6           17.5         -70.96          31.79          -36.1          88.17           61.9
    0.8082              -36.91        -0.6432          1.544          37.69         -12.59           17.5         -71.04          31.84         -36.21          88.21          61.88
    0.8405              -36.92        -0.6435          1.573          37.71         -12.58           17.5         -71.13          31.88         -36.33          88.25          61.86
    0.8729              -36.92        -0.6438          1.604          37.73         -12.57          17.49         -71.23          31.94         -36.46           88.3          61.83
    0.9052              -36.92        -0.6443           1.64          37.76         -12.56          17.49         -71.35           32.0         -36.62          88.36           61.8
    0.9375              -36.92        -0.6447          1.681          37.79         -12.55          17.49         -71.48          32.08         -36.79          88.42          61.77
    0.9698              -36.92        -0.6453          1.728          37.83         -12.53          17.49         -71.63          32.16         -36.99          88.49          61.74
     1.002              -36.92        -0.6459          1.782          37.87         -12.51          17.49          -71.8          32.25         -37.22          88.57          61.69
     1.035              -36.92        -0.6466          1.843          37.91         -12.49          17.49          -72.0          32.36         -37.48          88.67          61.65
     1.067              -36.93        -0.6474          1.915          37.97         -12.47          17.49         -72.24          32.49         -37.79          88.78          61.59
     1.099              -36.93        -0.6484          1.999          38.03         -12.44          17.49         -72.51          32.63         -38.14           88.9          61.53
     1.131              -36.93        -0.6495          2.098           38.1         -12.41          17.49         -72.83          32.81         -38.56          89.06          61.45
     1.164              -36.94        -0.6509          2.216          38.19         -12.37          17.49         -73.21          33.02         -39.07          89.23          61.36
     1.196              -36.94        -0.6525          2.357           38.3         -12.32          17.49         -73.67          33.26         -39.67          89.45          61.25
     1.228              -36.95        -0.6544          2.528          38.42         -12.26          17.49         -74.22          33.56         -40.39          89.71          61.12
     1.261              -36.96        -0.6568          2.737          38.58         -12.19          17.48         -74.89          33.93         -41.28          90.03          60.96
     1.293              -36.97        -0.6598          2.994          38.77         -12.11          17.48         -75.72          34.38         -42.37          90.42          60.76
     1.325              -36.98        -0.6634          3.315          39.01          -12.0          17.48         -76.76          34.95         -43.74          90.91          60.51
     1.358              -36.99        -0.6681           3.72          39.31         -11.86          17.47         -78.07          35.66         -45.46          91.53           60.2
